<svg width="576" height="45" viewBox="0 0 576 45" fill="none" xmlns="http://www.w3.org/2000/svg">
<path d="M5.52344 4.89111V16.2661H4.03906V4.89111H5.52344ZM9.17969 4.89111V6.12549H0.390625V4.89111H9.17969ZM11.5 9.14111V16.2661H10.0547V7.81299H11.4609L11.5 9.14111ZM14.1406 7.76611L14.1328 9.10986C14.013 9.08382 13.8984 9.0682 13.7891 9.06299C13.6849 9.05257 13.5651 9.04736 13.4297 9.04736C13.0964 9.04736 12.8021 9.09945 12.5469 9.20361C12.2917 9.30778 12.0755 9.45361 11.8984 9.64111C11.7214 9.82861 11.5807 10.0526 11.4766 10.313C11.3776 10.5682 11.3125 10.8494 11.2812 11.1567L10.875 11.3911C10.875 10.8807 10.9245 10.4015 11.0234 9.95361C11.1276 9.5057 11.2865 9.10986 11.5 8.76611C11.7135 8.41715 11.9844 8.14632 12.3125 7.95361C12.6458 7.7557 13.0417 7.65674 13.5 7.65674C13.6042 7.65674 13.724 7.66976 13.8594 7.6958C13.9948 7.71663 14.0885 7.74007 14.1406 7.76611ZM20.6484 14.313V7.81299H22.1016V16.2661H20.7188L20.6484 14.313ZM20.9219 12.5317L21.5234 12.5161C21.5234 13.0786 21.4635 13.5994 21.3438 14.0786C21.2292 14.5526 21.0417 14.964 20.7812 15.313C20.5208 15.6619 20.1797 15.9354 19.7578 16.1333C19.3359 16.326 18.8229 16.4224 18.2188 16.4224C17.8073 16.4224 17.4297 16.3625 17.0859 16.2427C16.7474 16.1229 16.4557 15.938 16.2109 15.688C15.9661 15.438 15.776 15.1125 15.6406 14.7114C15.5104 14.3104 15.4453 13.8286 15.4453 13.2661V7.81299H16.8906V13.2817C16.8906 13.6619 16.9323 13.9771 17.0156 14.2271C17.1042 14.4718 17.2214 14.6672 17.3672 14.813C17.5182 14.9536 17.6849 15.0526 17.8672 15.1099C18.0547 15.1672 18.2474 15.1958 18.4453 15.1958C19.0599 15.1958 19.5469 15.0786 19.9062 14.8442C20.2656 14.6047 20.5234 14.2843 20.6797 13.8833C20.8411 13.4771 20.9219 13.0265 20.9219 12.5317ZM29.2266 14.0239C29.2266 13.8156 29.1797 13.6229 29.0859 13.4458C28.9974 13.2635 28.8125 13.0994 28.5312 12.9536C28.2552 12.8026 27.8385 12.6724 27.2812 12.563C26.8125 12.464 26.388 12.3468 26.0078 12.2114C25.6328 12.076 25.3125 11.9119 25.0469 11.7192C24.7865 11.5265 24.5859 11.3 24.4453 11.0396C24.3047 10.7791 24.2344 10.4744 24.2344 10.1255C24.2344 9.79215 24.3073 9.47705 24.4531 9.18018C24.6042 8.8833 24.8151 8.62028 25.0859 8.39111C25.362 8.16195 25.6927 7.98226 26.0781 7.85205C26.4635 7.72184 26.8932 7.65674 27.3672 7.65674C28.0443 7.65674 28.6224 7.77653 29.1016 8.01611C29.5807 8.2557 29.9479 8.57601 30.2031 8.97705C30.4583 9.37288 30.5859 9.81299 30.5859 10.2974H29.1406C29.1406 10.063 29.0703 9.83643 28.9297 9.61768C28.7943 9.39372 28.5938 9.20882 28.3281 9.06299C28.0677 8.91715 27.7474 8.84424 27.3672 8.84424C26.9661 8.84424 26.6406 8.90674 26.3906 9.03174C26.1458 9.15153 25.9661 9.30518 25.8516 9.49268C25.7422 9.68018 25.6875 9.87809 25.6875 10.0864C25.6875 10.2427 25.7135 10.3833 25.7656 10.5083C25.8229 10.6281 25.9219 10.7401 26.0625 10.8442C26.2031 10.9432 26.401 11.0369 26.6562 11.1255C26.9115 11.214 27.237 11.3026 27.6328 11.3911C28.3255 11.5474 28.8958 11.7349 29.3438 11.9536C29.7917 12.1724 30.125 12.4406 30.3438 12.7583C30.5625 13.076 30.6719 13.4614 30.6719 13.9146C30.6719 14.2843 30.5938 14.6229 30.4375 14.9302C30.2865 15.2375 30.0651 15.5031 29.7734 15.7271C29.487 15.9458 29.1432 16.1177 28.7422 16.2427C28.3464 16.3625 27.901 16.4224 27.4062 16.4224C26.6615 16.4224 26.0312 16.2896 25.5156 16.0239C25 15.7583 24.6094 15.4146 24.3438 14.9927C24.0781 14.5708 23.9453 14.1255 23.9453 13.6567H25.3984C25.4193 14.0526 25.5339 14.3677 25.7422 14.6021C25.9505 14.8312 26.2057 14.9953 26.5078 15.0942C26.8099 15.188 27.1094 15.2349 27.4062 15.2349C27.8021 15.2349 28.1328 15.1828 28.3984 15.0786C28.6693 14.9744 28.875 14.8312 29.0156 14.6489C29.1562 14.4666 29.2266 14.2583 29.2266 14.0239ZM36.1094 7.81299V8.92236H31.5391V7.81299H36.1094ZM33.0859 5.7583H34.5312V14.1724C34.5312 14.4588 34.5755 14.675 34.6641 14.8208C34.7526 14.9666 34.8672 15.063 35.0078 15.1099C35.1484 15.1567 35.2995 15.1802 35.4609 15.1802C35.5807 15.1802 35.7057 15.1698 35.8359 15.1489C35.9714 15.1229 36.0729 15.1021 36.1406 15.0864L36.1484 16.2661C36.0339 16.3026 35.8828 16.3364 35.6953 16.3677C35.513 16.4041 35.2917 16.4224 35.0312 16.4224C34.6771 16.4224 34.3516 16.3521 34.0547 16.2114C33.7578 16.0708 33.5208 15.8364 33.3438 15.5083C33.1719 15.175 33.0859 14.7271 33.0859 14.1646V5.7583ZM41.3125 16.4224C40.724 16.4224 40.1901 16.3234 39.7109 16.1255C39.237 15.9224 38.8281 15.6385 38.4844 15.2739C38.1458 14.9093 37.8854 14.4771 37.7031 13.9771C37.5208 13.4771 37.4297 12.9302 37.4297 12.3364V12.0083C37.4297 11.3208 37.5312 10.7088 37.7344 10.1724C37.9375 9.6307 38.2135 9.17236 38.5625 8.79736C38.9115 8.42236 39.3073 8.13851 39.75 7.9458C40.1927 7.75309 40.651 7.65674 41.125 7.65674C41.7292 7.65674 42.25 7.7609 42.6875 7.96924C43.1302 8.17757 43.4922 8.46924 43.7734 8.84424C44.0547 9.21403 44.263 9.65153 44.3984 10.1567C44.5339 10.6567 44.6016 11.2036 44.6016 11.7974V12.4458H38.2891V11.2661H43.1562V11.1567C43.1354 10.7817 43.0573 10.4172 42.9219 10.063C42.7917 9.70882 42.5833 9.41715 42.2969 9.18799C42.0104 8.95882 41.6198 8.84424 41.125 8.84424C40.7969 8.84424 40.4948 8.91455 40.2188 9.05518C39.9427 9.19059 39.7057 9.39372 39.5078 9.66455C39.3099 9.93538 39.1562 10.2661 39.0469 10.6567C38.9375 11.0474 38.8828 11.4979 38.8828 12.0083V12.3364C38.8828 12.7375 38.9375 13.1151 39.0469 13.4692C39.1615 13.8182 39.3255 14.1255 39.5391 14.3911C39.7578 14.6567 40.0208 14.8651 40.3281 15.0161C40.6406 15.1672 40.9948 15.2427 41.3906 15.2427C41.901 15.2427 42.3333 15.1385 42.6875 14.9302C43.0417 14.7218 43.3516 14.4432 43.6172 14.0942L44.4922 14.7896C44.3099 15.0656 44.0781 15.3286 43.7969 15.5786C43.5156 15.8286 43.1693 16.0317 42.7578 16.188C42.3516 16.3442 41.8698 16.4224 41.3125 16.4224ZM51.6172 14.6255V4.26611H53.0703V16.2661H51.7422L51.6172 14.6255ZM45.9297 12.1333V11.9692C45.9297 11.3234 46.0078 10.7375 46.1641 10.2114C46.3255 9.68018 46.5521 9.22445 46.8438 8.84424C47.1406 8.46403 47.4922 8.17236 47.8984 7.96924C48.3099 7.7609 48.7682 7.65674 49.2734 7.65674C49.8047 7.65674 50.2682 7.75049 50.6641 7.93799C51.0651 8.12028 51.4036 8.38851 51.6797 8.74268C51.9609 9.09163 52.1823 9.51351 52.3438 10.0083C52.5052 10.5031 52.6172 11.063 52.6797 11.688V12.4067C52.6224 13.0265 52.5104 13.5838 52.3438 14.0786C52.1823 14.5734 51.9609 14.9953 51.6797 15.3442C51.4036 15.6932 51.0651 15.9614 50.6641 16.1489C50.263 16.3312 49.7943 16.4224 49.2578 16.4224C48.763 16.4224 48.3099 16.3156 47.8984 16.1021C47.4922 15.8885 47.1406 15.589 46.8438 15.2036C46.5521 14.8182 46.3255 14.3651 46.1641 13.8442C46.0078 13.3182 45.9297 12.7479 45.9297 12.1333ZM47.3828 11.9692V12.1333C47.3828 12.5552 47.4245 12.951 47.5078 13.3208C47.5964 13.6906 47.7318 14.0161 47.9141 14.2974C48.0964 14.5786 48.3281 14.8 48.6094 14.9614C48.8906 15.1177 49.2266 15.1958 49.6172 15.1958C50.0964 15.1958 50.4896 15.0942 50.7969 14.8911C51.1094 14.688 51.3594 14.4198 51.5469 14.0864C51.7344 13.7531 51.8802 13.3911 51.9844 13.0005V11.1177C51.9219 10.8312 51.8307 10.5552 51.7109 10.2896C51.5964 10.0187 51.4453 9.77913 51.2578 9.5708C51.0755 9.35726 50.849 9.18799 50.5781 9.06299C50.3125 8.93799 49.9974 8.87549 49.6328 8.87549C49.237 8.87549 48.8958 8.95882 48.6094 9.12549C48.3281 9.28695 48.0964 9.5109 47.9141 9.79736C47.7318 10.0786 47.5964 10.4067 47.5078 10.7817C47.4245 11.1515 47.3828 11.5474 47.3828 11.9692ZM59.2812 4.26611H60.7344V14.6255L60.6094 16.2661H59.2812V4.26611ZM66.4453 11.9692V12.1333C66.4453 12.7479 66.3724 13.3182 66.2266 13.8442C66.0807 14.3651 65.8672 14.8182 65.5859 15.2036C65.3047 15.589 64.9609 15.8885 64.5547 16.1021C64.1484 16.3156 63.6823 16.4224 63.1562 16.4224C62.6198 16.4224 62.1484 16.3312 61.7422 16.1489C61.3411 15.9614 61.0026 15.6932 60.7266 15.3442C60.4505 14.9953 60.2292 14.5734 60.0625 14.0786C59.901 13.5838 59.7891 13.0265 59.7266 12.4067V11.688C59.7891 11.063 59.901 10.5031 60.0625 10.0083C60.2292 9.51351 60.4505 9.09163 60.7266 8.74268C61.0026 8.38851 61.3411 8.12028 61.7422 7.93799C62.1432 7.75049 62.6094 7.65674 63.1406 7.65674C63.6719 7.65674 64.1432 7.7609 64.5547 7.96924C64.9661 8.17236 65.3099 8.46403 65.5859 8.84424C65.8672 9.22445 66.0807 9.68018 66.2266 10.2114C66.3724 10.7375 66.4453 11.3234 66.4453 11.9692ZM64.9922 12.1333V11.9692C64.9922 11.5474 64.9531 11.1515 64.875 10.7817C64.7969 10.4067 64.6719 10.0786 64.5 9.79736C64.3281 9.5109 64.1016 9.28695 63.8203 9.12549C63.5391 8.95882 63.1927 8.87549 62.7812 8.87549C62.4167 8.87549 62.099 8.93799 61.8281 9.06299C61.5625 9.18799 61.3359 9.35726 61.1484 9.5708C60.9609 9.77913 60.8073 10.0187 60.6875 10.2896C60.5729 10.5552 60.487 10.8312 60.4297 11.1177V13.0005C60.513 13.3651 60.6484 13.7166 60.8359 14.0552C61.0286 14.3885 61.2839 14.6619 61.6016 14.8755C61.9245 15.089 62.3229 15.1958 62.7969 15.1958C63.1875 15.1958 63.5208 15.1177 63.7969 14.9614C64.0781 14.8 64.3047 14.5786 64.4766 14.2974C64.6536 14.0161 64.7839 13.6906 64.8672 13.3208C64.9505 12.951 64.9922 12.5552 64.9922 12.1333ZM70.5547 15.3911L72.9062 7.81299H74.4531L71.0625 17.5708C70.9844 17.7791 70.8802 18.0031 70.75 18.2427C70.625 18.4875 70.4635 18.7192 70.2656 18.938C70.0677 19.1567 69.8281 19.3338 69.5469 19.4692C69.2708 19.6099 68.9401 19.6802 68.5547 19.6802C68.4401 19.6802 68.2943 19.6646 68.1172 19.6333C67.9401 19.6021 67.8151 19.576 67.7422 19.5552L67.7344 18.3833C67.776 18.3885 67.8411 18.3937 67.9297 18.3989C68.0234 18.4093 68.0885 18.4146 68.125 18.4146C68.4531 18.4146 68.7318 18.3703 68.9609 18.2817C69.1901 18.1984 69.3828 18.0552 69.5391 17.8521C69.7005 17.6541 69.8385 17.3807 69.9531 17.0317L70.5547 15.3911ZM68.8281 7.81299L71.0234 14.3755L71.3984 15.8989L70.3594 16.4302L67.25 7.81299H68.8281ZM2.67188 26.2661V38.2661H1.21875V26.2661H2.67188ZM8.5 38.4224C7.91146 38.4224 7.3776 38.3234 6.89844 38.1255C6.42448 37.9224 6.01562 37.6385 5.67188 37.2739C5.33333 36.9093 5.07292 36.4771 4.89062 35.9771C4.70833 35.4771 4.61719 34.9302 4.61719 34.3364V34.0083C4.61719 33.3208 4.71875 32.7088 4.92188 32.1724C5.125 31.6307 5.40104 31.1724 5.75 30.7974C6.09896 30.4224 6.49479 30.1385 6.9375 29.9458C7.38021 29.7531 7.83854 29.6567 8.3125 29.6567C8.91667 29.6567 9.4375 29.7609 9.875 29.9692C10.3177 30.1776 10.6797 30.4692 10.9609 30.8442C11.2422 31.214 11.4505 31.6515 11.5859 32.1567C11.7214 32.6567 11.7891 33.2036 11.7891 33.7974V34.4458H5.47656V33.2661H10.3438V33.1567C10.3229 32.7817 10.2448 32.4172 10.1094 32.063C9.97917 31.7088 9.77083 31.4172 9.48438 31.188C9.19792 30.9588 8.80729 30.8442 8.3125 30.8442C7.98438 30.8442 7.68229 30.9146 7.40625 31.0552C7.13021 31.1906 6.89323 31.3937 6.69531 31.6646C6.4974 31.9354 6.34375 32.2661 6.23438 32.6567C6.125 33.0474 6.07031 33.4979 6.07031 34.0083V34.3364C6.07031 34.7375 6.125 35.1151 6.23438 35.4692C6.34896 35.8182 6.51302 36.1255 6.72656 36.3911C6.94531 36.6567 7.20833 36.8651 7.51562 37.0161C7.82812 37.1672 8.18229 37.2427 8.57812 37.2427C9.08854 37.2427 9.52083 37.1385 9.875 36.9302C10.2292 36.7218 10.5391 36.4432 10.8047 36.0942L11.6797 36.7896C11.4974 37.0656 11.2656 37.3286 10.9844 37.5786C10.7031 37.8286 10.3568 38.0317 9.94531 38.188C9.53906 38.3442 9.05729 38.4224 8.5 38.4224ZM18.4609 36.8208V32.4692C18.4609 32.1359 18.3932 31.8468 18.2578 31.6021C18.1276 31.3521 17.9297 31.1593 17.6641 31.0239C17.3984 30.8885 17.0703 30.8208 16.6797 30.8208C16.3151 30.8208 15.9948 30.8833 15.7188 31.0083C15.4479 31.1333 15.2344 31.2974 15.0781 31.5005C14.9271 31.7036 14.8516 31.9224 14.8516 32.1567H13.4062C13.4062 31.8547 13.4844 31.5552 13.6406 31.2583C13.7969 30.9614 14.0208 30.6932 14.3125 30.4536C14.6094 30.2088 14.9635 30.0161 15.375 29.8755C15.7917 29.7297 16.2552 29.6567 16.7656 29.6567C17.3802 29.6567 17.9219 29.7609 18.3906 29.9692C18.8646 30.1776 19.2344 30.4927 19.5 30.9146C19.7708 31.3312 19.9062 31.8547 19.9062 32.4849V36.4224C19.9062 36.7036 19.9297 37.0031 19.9766 37.3208C20.0286 37.6385 20.1042 37.9119 20.2031 38.1411V38.2661H18.6953C18.6224 38.0994 18.5651 37.8781 18.5234 37.6021C18.4818 37.3208 18.4609 37.0604 18.4609 36.8208ZM18.7109 33.1411L18.7266 34.1567H17.2656C16.8542 34.1567 16.487 34.1906 16.1641 34.2583C15.8411 34.3208 15.5703 34.4172 15.3516 34.5474C15.1328 34.6776 14.9661 34.8416 14.8516 35.0396C14.737 35.2323 14.6797 35.4588 14.6797 35.7192C14.6797 35.9849 14.7396 36.2271 14.8594 36.4458C14.9792 36.6646 15.1589 36.839 15.3984 36.9692C15.6432 37.0942 15.9427 37.1567 16.2969 37.1567C16.7396 37.1567 17.1302 37.063 17.4688 36.8755C17.8073 36.688 18.0755 36.4588 18.2734 36.188C18.4766 35.9172 18.5859 35.6541 18.6016 35.3989L19.2188 36.0942C19.1823 36.313 19.0833 36.5552 18.9219 36.8208C18.7604 37.0864 18.5443 37.3416 18.2734 37.5864C18.0078 37.826 17.6901 38.0265 17.3203 38.188C16.9557 38.3442 16.5443 38.4224 16.0859 38.4224C15.513 38.4224 15.0104 38.3104 14.5781 38.0864C14.151 37.8625 13.8177 37.563 13.5781 37.188C13.3438 36.8078 13.2266 36.3833 13.2266 35.9146C13.2266 35.4614 13.3151 35.063 13.4922 34.7192C13.6693 34.3703 13.9245 34.0812 14.2578 33.8521C14.5911 33.6177 14.9922 33.4406 15.4609 33.3208C15.9297 33.201 16.4531 33.1411 17.0312 33.1411H18.7109ZM27.5078 36.6255V26.2661H28.9609V38.2661H27.6328L27.5078 36.6255ZM21.8203 34.1333V33.9692C21.8203 33.3234 21.8984 32.7375 22.0547 32.2114C22.2161 31.6802 22.4427 31.2244 22.7344 30.8442C23.0312 30.464 23.3828 30.1724 23.7891 29.9692C24.2005 29.7609 24.6589 29.6567 25.1641 29.6567C25.6953 29.6567 26.1589 29.7505 26.5547 29.938C26.9557 30.1203 27.2943 30.3885 27.5703 30.7427C27.8516 31.0916 28.0729 31.5135 28.2344 32.0083C28.3958 32.5031 28.5078 33.063 28.5703 33.688V34.4067C28.513 35.0265 28.401 35.5838 28.2344 36.0786C28.0729 36.5734 27.8516 36.9953 27.5703 37.3442C27.2943 37.6932 26.9557 37.9614 26.5547 38.1489C26.1536 38.3312 25.6849 38.4224 25.1484 38.4224C24.6536 38.4224 24.2005 38.3156 23.7891 38.1021C23.3828 37.8885 23.0312 37.589 22.7344 37.2036C22.4427 36.8182 22.2161 36.3651 22.0547 35.8442C21.8984 35.3182 21.8203 34.7479 21.8203 34.1333ZM23.2734 33.9692V34.1333C23.2734 34.5552 23.3151 34.951 23.3984 35.3208C23.487 35.6906 23.6224 36.0161 23.8047 36.2974C23.987 36.5786 24.2188 36.8 24.5 36.9614C24.7812 37.1177 25.1172 37.1958 25.5078 37.1958C25.987 37.1958 26.3802 37.0942 26.6875 36.8911C27 36.688 27.25 36.4198 27.4375 36.0864C27.625 35.7531 27.7708 35.3911 27.875 35.0005V33.1177C27.8125 32.8312 27.7214 32.5552 27.6016 32.2896C27.487 32.0187 27.3359 31.7791 27.1484 31.5708C26.9661 31.3573 26.7396 31.188 26.4688 31.063C26.2031 30.938 25.888 30.8755 25.5234 30.8755C25.1276 30.8755 24.7865 30.9588 24.5 31.1255C24.2188 31.2869 23.987 31.5109 23.8047 31.7974C23.6224 32.0786 23.487 32.4067 23.3984 32.7817C23.3151 33.1515 23.2734 33.5474 23.2734 33.9692ZM32.7812 29.813V38.2661H31.3281V29.813H32.7812ZM31.2188 27.5708C31.2188 27.3364 31.2891 27.1385 31.4297 26.9771C31.5755 26.8156 31.7891 26.7349 32.0703 26.7349C32.3464 26.7349 32.5573 26.8156 32.7031 26.9771C32.8542 27.1385 32.9297 27.3364 32.9297 27.5708C32.9297 27.7948 32.8542 27.9875 32.7031 28.1489C32.5573 28.3052 32.3464 28.3833 32.0703 28.3833C31.7891 28.3833 31.5755 28.3052 31.4297 28.1489C31.2891 27.9875 31.2188 27.7948 31.2188 27.5708ZM36.5469 31.6177V38.2661H35.1016V29.813H36.4688L36.5469 31.6177ZM36.2031 33.7192L35.6016 33.6958C35.6068 33.1177 35.6927 32.5838 35.8594 32.0942C36.026 31.5994 36.2604 31.1698 36.5625 30.8052C36.8646 30.4406 37.224 30.1593 37.6406 29.9614C38.0625 29.7583 38.5286 29.6567 39.0391 29.6567C39.4557 29.6567 39.8307 29.714 40.1641 29.8286C40.4974 29.938 40.7812 30.1151 41.0156 30.3599C41.2552 30.6047 41.4375 30.9224 41.5625 31.313C41.6875 31.6984 41.75 32.1698 41.75 32.7271V38.2661H40.2969V32.7114C40.2969 32.2687 40.2318 31.9146 40.1016 31.6489C39.9714 31.3781 39.7812 31.1828 39.5312 31.063C39.2812 30.938 38.974 30.8755 38.6094 30.8755C38.25 30.8755 37.9219 30.951 37.625 31.1021C37.3333 31.2531 37.0807 31.4614 36.8672 31.7271C36.6589 31.9927 36.4948 32.2974 36.375 32.6411C36.2604 32.9797 36.2031 33.339 36.2031 33.7192ZM49.4219 29.813H50.7344V38.0864C50.7344 38.8312 50.5833 39.4666 50.2812 39.9927C49.9792 40.5187 49.5573 40.9172 49.0156 41.188C48.4792 41.464 47.8594 41.6021 47.1562 41.6021C46.8646 41.6021 46.5208 41.5552 46.125 41.4614C45.7344 41.3729 45.349 41.2192 44.9688 41.0005C44.5938 40.7869 44.2786 40.4979 44.0234 40.1333L44.7812 39.2739C45.1354 39.701 45.5052 39.9979 45.8906 40.1646C46.2812 40.3312 46.6667 40.4146 47.0469 40.4146C47.5052 40.4146 47.901 40.3286 48.2344 40.1567C48.5677 39.9849 48.8255 39.7297 49.0078 39.3911C49.1953 39.0578 49.2891 38.6463 49.2891 38.1567V31.6724L49.4219 29.813ZM43.6016 34.1333V33.9692C43.6016 33.3234 43.6771 32.7375 43.8281 32.2114C43.9844 31.6802 44.2057 31.2244 44.4922 30.8442C44.7839 30.464 45.1354 30.1724 45.5469 29.9692C45.9583 29.7609 46.4219 29.6567 46.9375 29.6567C47.4688 29.6567 47.9323 29.7505 48.3281 29.938C48.7292 30.1203 49.0677 30.3885 49.3438 30.7427C49.625 31.0916 49.8464 31.5135 50.0078 32.0083C50.1693 32.5031 50.2812 33.063 50.3438 33.688V34.4067C50.2865 35.0265 50.1745 35.5838 50.0078 36.0786C49.8464 36.5734 49.625 36.9953 49.3438 37.3442C49.0677 37.6932 48.7292 37.9614 48.3281 38.1489C47.9271 38.3312 47.4583 38.4224 46.9219 38.4224C46.4167 38.4224 45.9583 38.3156 45.5469 38.1021C45.1406 37.8885 44.7917 37.589 44.5 37.2036C44.2083 36.8182 43.9844 36.3651 43.8281 35.8442C43.6771 35.3182 43.6016 34.7479 43.6016 34.1333ZM45.0469 33.9692V34.1333C45.0469 34.5552 45.0885 34.951 45.1719 35.3208C45.2604 35.6906 45.3932 36.0161 45.5703 36.2974C45.7526 36.5786 45.9844 36.8 46.2656 36.9614C46.5469 37.1177 46.8828 37.1958 47.2734 37.1958C47.7526 37.1958 48.1484 37.0942 48.4609 36.8911C48.7734 36.688 49.0208 36.4198 49.2031 36.0864C49.3906 35.7531 49.5365 35.3911 49.6406 35.0005V33.1177C49.5833 32.8312 49.4948 32.5552 49.375 32.2896C49.2604 32.0187 49.1094 31.7791 48.9219 31.5708C48.7396 31.3573 48.513 31.188 48.2422 31.063C47.9714 30.938 47.6536 30.8755 47.2891 30.8755C46.8932 30.8755 46.5521 30.9588 46.2656 31.1255C45.9844 31.2869 45.7526 31.5109 45.5703 31.7974C45.3932 32.0786 45.2604 32.4067 45.1719 32.7817C45.0885 33.1515 45.0469 33.5474 45.0469 33.9692ZM60.2812 37.2349C60.625 37.2349 60.9427 37.1646 61.2344 37.0239C61.526 36.8833 61.7656 36.6906 61.9531 36.4458C62.1406 36.1958 62.2474 35.9119 62.2734 35.5942H63.6484C63.6224 36.0942 63.4531 36.5604 63.1406 36.9927C62.8333 37.4198 62.4297 37.7661 61.9297 38.0317C61.4297 38.2922 60.8802 38.4224 60.2812 38.4224C59.6458 38.4224 59.0911 38.3104 58.6172 38.0864C58.1484 37.8625 57.7578 37.5552 57.4453 37.1646C57.138 36.7739 56.9062 36.326 56.75 35.8208C56.599 35.3104 56.5234 34.7713 56.5234 34.2036V33.8755C56.5234 33.3078 56.599 32.7713 56.75 32.2661C56.9062 31.7557 57.138 31.3052 57.4453 30.9146C57.7578 30.5239 58.1484 30.2166 58.6172 29.9927C59.0911 29.7687 59.6458 29.6567 60.2812 29.6567C60.9427 29.6567 61.5208 29.7922 62.0156 30.063C62.5104 30.3286 62.8984 30.6932 63.1797 31.1567C63.4661 31.6151 63.6224 32.1359 63.6484 32.7192H62.2734C62.2474 32.3703 62.1484 32.0552 61.9766 31.7739C61.8099 31.4927 61.5807 31.2687 61.2891 31.1021C61.0026 30.9302 60.6667 30.8442 60.2812 30.8442C59.8385 30.8442 59.4661 30.9328 59.1641 31.1099C58.8672 31.2817 58.6302 31.5161 58.4531 31.813C58.2812 32.1047 58.1562 32.4302 58.0781 32.7896C58.0052 33.1437 57.9688 33.5057 57.9688 33.8755V34.2036C57.9688 34.5734 58.0052 34.938 58.0781 35.2974C58.151 35.6567 58.2734 35.9823 58.4453 36.2739C58.6224 36.5656 58.8594 36.8 59.1562 36.9771C59.4583 37.1489 59.8333 37.2349 60.2812 37.2349ZM64.8906 34.1333V33.9536C64.8906 33.3442 64.9792 32.7791 65.1562 32.2583C65.3333 31.7323 65.5885 31.2765 65.9219 30.8911C66.2552 30.5005 66.6589 30.1984 67.1328 29.9849C67.6068 29.7661 68.138 29.6567 68.7266 29.6567C69.3203 29.6567 69.8542 29.7661 70.3281 29.9849C70.8073 30.1984 71.2135 30.5005 71.5469 30.8911C71.8854 31.2765 72.1432 31.7323 72.3203 32.2583C72.4974 32.7791 72.5859 33.3442 72.5859 33.9536V34.1333C72.5859 34.7427 72.4974 35.3078 72.3203 35.8286C72.1432 36.3494 71.8854 36.8052 71.5469 37.1958C71.2135 37.5812 70.8099 37.8833 70.3359 38.1021C69.8672 38.3156 69.3359 38.4224 68.7422 38.4224C68.1484 38.4224 67.6146 38.3156 67.1406 38.1021C66.6667 37.8833 66.2604 37.5812 65.9219 37.1958C65.5885 36.8052 65.3333 36.3494 65.1562 35.8286C64.9792 35.3078 64.8906 34.7427 64.8906 34.1333ZM66.3359 33.9536V34.1333C66.3359 34.5552 66.3854 34.9536 66.4844 35.3286C66.5833 35.6984 66.7318 36.0265 66.9297 36.313C67.1328 36.5994 67.3854 36.826 67.6875 36.9927C67.9896 37.1541 68.3411 37.2349 68.7422 37.2349C69.138 37.2349 69.4844 37.1541 69.7812 36.9927C70.0833 36.826 70.3333 36.5994 70.5312 36.313C70.7292 36.0265 70.8776 35.6984 70.9766 35.3286C71.0807 34.9536 71.1328 34.5552 71.1328 34.1333V33.9536C71.1328 33.5369 71.0807 33.1437 70.9766 32.7739C70.8776 32.3989 70.7266 32.0682 70.5234 31.7817C70.3255 31.4901 70.0755 31.2609 69.7734 31.0942C69.4766 30.9276 69.1276 30.8442 68.7266 30.8442C68.3307 30.8442 67.9818 30.9276 67.6797 31.0942C67.3828 31.2609 67.1328 31.4901 66.9297 31.7817C66.7318 32.0682 66.5833 32.3989 66.4844 32.7739C66.3854 33.1437 66.3359 33.5369 66.3359 33.9536ZM75.8359 31.4927V38.2661H74.3828V29.813H75.7578L75.8359 31.4927ZM75.5391 33.7192L74.8672 33.6958C74.8724 33.1177 74.9479 32.5838 75.0938 32.0942C75.2396 31.5994 75.4557 31.1698 75.7422 30.8052C76.0286 30.4406 76.3854 30.1593 76.8125 29.9614C77.2396 29.7583 77.7344 29.6567 78.2969 29.6567C78.6927 29.6567 79.0573 29.714 79.3906 29.8286C79.724 29.938 80.013 30.1125 80.2578 30.3521C80.5026 30.5916 80.6927 30.8989 80.8281 31.2739C80.9635 31.6489 81.0312 32.1021 81.0312 32.6333V38.2661H79.5859V32.7036C79.5859 32.2609 79.5104 31.9067 79.3594 31.6411C79.2135 31.3755 79.0052 31.1828 78.7344 31.063C78.4635 30.938 78.1458 30.8755 77.7812 30.8755C77.3542 30.8755 76.9974 30.951 76.7109 31.1021C76.4245 31.2531 76.1953 31.4614 76.0234 31.7271C75.8516 31.9927 75.7266 32.2974 75.6484 32.6411C75.5755 32.9797 75.5391 33.339 75.5391 33.7192ZM81.0156 32.9224L80.0469 33.2192C80.0521 32.7557 80.1276 32.3104 80.2734 31.8833C80.4245 31.4562 80.6406 31.076 80.9219 30.7427C81.2083 30.4093 81.5599 30.1463 81.9766 29.9536C82.3932 29.7557 82.8698 29.6567 83.4062 29.6567C83.8594 29.6567 84.2604 29.7166 84.6094 29.8364C84.9635 29.9562 85.2604 30.1411 85.5 30.3911C85.7448 30.6359 85.9297 30.951 86.0547 31.3364C86.1797 31.7218 86.2422 32.1802 86.2422 32.7114V38.2661H84.7891V32.6958C84.7891 32.2218 84.7135 31.8547 84.5625 31.5942C84.4167 31.3286 84.2083 31.1437 83.9375 31.0396C83.6719 30.9302 83.3542 30.8755 82.9844 30.8755C82.6667 30.8755 82.3854 30.9302 82.1406 31.0396C81.8958 31.1489 81.6901 31.3 81.5234 31.4927C81.3568 31.6802 81.2292 31.8963 81.1406 32.1411C81.0573 32.3859 81.0156 32.6463 81.0156 32.9224ZM89.875 31.438V41.5161H88.4219V29.813H89.75L89.875 31.438ZM95.5703 33.9692V34.1333C95.5703 34.7479 95.4974 35.3182 95.3516 35.8442C95.2057 36.3651 94.9922 36.8182 94.7109 37.2036C94.4349 37.589 94.0938 37.8885 93.6875 38.1021C93.2812 38.3156 92.8151 38.4224 92.2891 38.4224C91.7526 38.4224 91.2786 38.3338 90.8672 38.1567C90.4557 37.9797 90.1068 37.7218 89.8203 37.3833C89.5339 37.0448 89.3047 36.6385 89.1328 36.1646C88.9661 35.6906 88.8516 35.1567 88.7891 34.563V33.688C88.8516 33.063 88.9688 32.5031 89.1406 32.0083C89.3125 31.5135 89.5391 31.0916 89.8203 30.7427C90.1068 30.3885 90.4531 30.1203 90.8594 29.938C91.2656 29.7505 91.7344 29.6567 92.2656 29.6567C92.7969 29.6567 93.2682 29.7609 93.6797 29.9692C94.0911 30.1724 94.4375 30.464 94.7188 30.8442C95 31.2244 95.2109 31.6802 95.3516 32.2114C95.4974 32.7375 95.5703 33.3234 95.5703 33.9692ZM94.1172 34.1333V33.9692C94.1172 33.5474 94.0729 33.1515 93.9844 32.7817C93.8958 32.4067 93.7578 32.0786 93.5703 31.7974C93.388 31.5109 93.1536 31.2869 92.8672 31.1255C92.5807 30.9588 92.2396 30.8755 91.8438 30.8755C91.4792 30.8755 91.1615 30.938 90.8906 31.063C90.625 31.188 90.3984 31.3573 90.2109 31.5708C90.0234 31.7791 89.8698 32.0187 89.75 32.2896C89.6354 32.5552 89.5495 32.8312 89.4922 33.1177V35.1411C89.5964 35.5057 89.7422 35.8494 89.9297 36.1724C90.1172 36.4901 90.3672 36.7479 90.6797 36.9458C90.9922 37.1385 91.3854 37.2349 91.8594 37.2349C92.25 37.2349 92.5859 37.1541 92.8672 36.9927C93.1536 36.826 93.388 36.5994 93.5703 36.313C93.7578 36.0265 93.8958 35.6984 93.9844 35.3286C94.0729 34.9536 94.1172 34.5552 94.1172 34.1333ZM102.398 36.8208V32.4692C102.398 32.1359 102.331 31.8468 102.195 31.6021C102.065 31.3521 101.867 31.1593 101.602 31.0239C101.336 30.8885 101.008 30.8208 100.617 30.8208C100.253 30.8208 99.9323 30.8833 99.6562 31.0083C99.3854 31.1333 99.1719 31.2974 99.0156 31.5005C98.8646 31.7036 98.7891 31.9224 98.7891 32.1567H97.3438C97.3438 31.8547 97.4219 31.5552 97.5781 31.2583C97.7344 30.9614 97.9583 30.6932 98.25 30.4536C98.5469 30.2088 98.901 30.0161 99.3125 29.8755C99.7292 29.7297 100.193 29.6567 100.703 29.6567C101.318 29.6567 101.859 29.7609 102.328 29.9692C102.802 30.1776 103.172 30.4927 103.438 30.9146C103.708 31.3312 103.844 31.8547 103.844 32.4849V36.4224C103.844 36.7036 103.867 37.0031 103.914 37.3208C103.966 37.6385 104.042 37.9119 104.141 38.1411V38.2661H102.633C102.56 38.0994 102.503 37.8781 102.461 37.6021C102.419 37.3208 102.398 37.0604 102.398 36.8208ZM102.648 33.1411L102.664 34.1567H101.203C100.792 34.1567 100.424 34.1906 100.102 34.2583C99.7786 34.3208 99.5078 34.4172 99.2891 34.5474C99.0703 34.6776 98.9036 34.8416 98.7891 35.0396C98.6745 35.2323 98.6172 35.4588 98.6172 35.7192C98.6172 35.9849 98.6771 36.2271 98.7969 36.4458C98.9167 36.6646 99.0964 36.839 99.3359 36.9692C99.5807 37.0942 99.8802 37.1567 100.234 37.1567C100.677 37.1567 101.068 37.063 101.406 36.8755C101.745 36.688 102.013 36.4588 102.211 36.188C102.414 35.9172 102.523 35.6541 102.539 35.3989L103.156 36.0942C103.12 36.313 103.021 36.5552 102.859 36.8208C102.698 37.0864 102.482 37.3416 102.211 37.5864C101.945 37.826 101.628 38.0265 101.258 38.188C100.893 38.3442 100.482 38.4224 100.023 38.4224C99.4505 38.4224 98.9479 38.3104 98.5156 38.0864C98.0885 37.8625 97.7552 37.563 97.5156 37.188C97.2812 36.8078 97.1641 36.3833 97.1641 35.9146C97.1641 35.4614 97.2526 35.063 97.4297 34.7192C97.6068 34.3703 97.862 34.0812 98.1953 33.8521C98.5286 33.6177 98.9297 33.4406 99.3984 33.3208C99.8672 33.201 100.391 33.1411 100.969 33.1411H102.648ZM107.562 31.6177V38.2661H106.117V29.813H107.484L107.562 31.6177ZM107.219 33.7192L106.617 33.6958C106.622 33.1177 106.708 32.5838 106.875 32.0942C107.042 31.5994 107.276 31.1698 107.578 30.8052C107.88 30.4406 108.24 30.1593 108.656 29.9614C109.078 29.7583 109.544 29.6567 110.055 29.6567C110.471 29.6567 110.846 29.714 111.18 29.8286C111.513 29.938 111.797 30.1151 112.031 30.3599C112.271 30.6047 112.453 30.9224 112.578 31.313C112.703 31.6984 112.766 32.1698 112.766 32.7271V38.2661H111.312V32.7114C111.312 32.2687 111.247 31.9146 111.117 31.6489C110.987 31.3781 110.797 31.1828 110.547 31.063C110.297 30.938 109.99 30.8755 109.625 30.8755C109.266 30.8755 108.938 30.951 108.641 31.1021C108.349 31.2531 108.096 31.4614 107.883 31.7271C107.674 31.9927 107.51 32.2974 107.391 32.6411C107.276 32.9797 107.219 33.339 107.219 33.7192ZM116.531 29.813V38.2661H115.078V29.813H116.531ZM114.969 27.5708C114.969 27.3364 115.039 27.1385 115.18 26.9771C115.326 26.8156 115.539 26.7349 115.82 26.7349C116.096 26.7349 116.307 26.8156 116.453 26.9771C116.604 27.1385 116.68 27.3364 116.68 27.5708C116.68 27.7948 116.604 27.9875 116.453 28.1489C116.307 28.3052 116.096 28.3833 115.82 28.3833C115.539 28.3833 115.326 28.3052 115.18 28.1489C115.039 27.9875 114.969 27.7948 114.969 27.5708ZM122.359 38.4224C121.771 38.4224 121.237 38.3234 120.758 38.1255C120.284 37.9224 119.875 37.6385 119.531 37.2739C119.193 36.9093 118.932 36.4771 118.75 35.9771C118.568 35.4771 118.477 34.9302 118.477 34.3364V34.0083C118.477 33.3208 118.578 32.7088 118.781 32.1724C118.984 31.6307 119.26 31.1724 119.609 30.7974C119.958 30.4224 120.354 30.1385 120.797 29.9458C121.24 29.7531 121.698 29.6567 122.172 29.6567C122.776 29.6567 123.297 29.7609 123.734 29.9692C124.177 30.1776 124.539 30.4692 124.82 30.8442C125.102 31.214 125.31 31.6515 125.445 32.1567C125.581 32.6567 125.648 33.2036 125.648 33.7974V34.4458H119.336V33.2661H124.203V33.1567C124.182 32.7817 124.104 32.4172 123.969 32.063C123.839 31.7088 123.63 31.4172 123.344 31.188C123.057 30.9588 122.667 30.8442 122.172 30.8442C121.844 30.8442 121.542 30.9146 121.266 31.0552C120.99 31.1906 120.753 31.3937 120.555 31.6646C120.357 31.9354 120.203 32.2661 120.094 32.6567C119.984 33.0474 119.93 33.4979 119.93 34.0083V34.3364C119.93 34.7375 119.984 35.1151 120.094 35.4692C120.208 35.8182 120.372 36.1255 120.586 36.3911C120.805 36.6567 121.068 36.8651 121.375 37.0161C121.688 37.1672 122.042 37.2427 122.438 37.2427C122.948 37.2427 123.38 37.1385 123.734 36.9302C124.089 36.7218 124.398 36.4432 124.664 36.0942L125.539 36.7896C125.357 37.0656 125.125 37.3286 124.844 37.5786C124.562 37.8286 124.216 38.0317 123.805 38.188C123.398 38.3442 122.917 38.4224 122.359 38.4224ZM132.258 36.0239C132.258 35.8156 132.211 35.6229 132.117 35.4458C132.029 35.2635 131.844 35.0994 131.562 34.9536C131.286 34.8026 130.87 34.6724 130.312 34.563C129.844 34.464 129.419 34.3468 129.039 34.2114C128.664 34.076 128.344 33.9119 128.078 33.7192C127.818 33.5265 127.617 33.3 127.477 33.0396C127.336 32.7791 127.266 32.4744 127.266 32.1255C127.266 31.7922 127.339 31.4771 127.484 31.1802C127.635 30.8833 127.846 30.6203 128.117 30.3911C128.393 30.1619 128.724 29.9823 129.109 29.8521C129.495 29.7218 129.924 29.6567 130.398 29.6567C131.076 29.6567 131.654 29.7765 132.133 30.0161C132.612 30.2557 132.979 30.576 133.234 30.9771C133.49 31.3729 133.617 31.813 133.617 32.2974H132.172C132.172 32.063 132.102 31.8364 131.961 31.6177C131.826 31.3937 131.625 31.2088 131.359 31.063C131.099 30.9172 130.779 30.8442 130.398 30.8442C129.997 30.8442 129.672 30.9067 129.422 31.0317C129.177 31.1515 128.997 31.3052 128.883 31.4927C128.773 31.6802 128.719 31.8781 128.719 32.0864C128.719 32.2427 128.745 32.3833 128.797 32.5083C128.854 32.6281 128.953 32.7401 129.094 32.8442C129.234 32.9432 129.432 33.0369 129.688 33.1255C129.943 33.214 130.268 33.3026 130.664 33.3911C131.357 33.5474 131.927 33.7349 132.375 33.9536C132.823 34.1724 133.156 34.4406 133.375 34.7583C133.594 35.076 133.703 35.4614 133.703 35.9146C133.703 36.2843 133.625 36.6229 133.469 36.9302C133.318 37.2375 133.096 37.5031 132.805 37.7271C132.518 37.9458 132.174 38.1177 131.773 38.2427C131.378 38.3625 130.932 38.4224 130.438 38.4224C129.693 38.4224 129.062 38.2896 128.547 38.0239C128.031 37.7583 127.641 37.4146 127.375 36.9927C127.109 36.5708 126.977 36.1255 126.977 35.6567H128.43C128.451 36.0526 128.565 36.3677 128.773 36.6021C128.982 36.8312 129.237 36.9953 129.539 37.0942C129.841 37.188 130.141 37.2349 130.438 37.2349C130.833 37.2349 131.164 37.1828 131.43 37.0786C131.701 36.9744 131.906 36.8312 132.047 36.6489C132.188 36.4666 132.258 36.2583 132.258 36.0239Z" fill="#475569"/>
<path d="M198.763 15.3038C199.715 15.3047 200.655 15.5113 201.523 15.91C202.392 16.3088 203.168 16.8908 203.803 17.6181L205.788 15.7821C204.517 14.3325 202.85 13.3094 201.003 12.8465C199.157 12.3835 197.217 12.5021 195.437 13.1869C193.658 13.8716 192.12 15.0907 191.026 16.685C189.932 18.2793 189.332 20.1748 189.304 22.1241C189.277 24.0735 189.822 25.9862 190.87 27.6126C191.919 29.2391 193.42 30.5038 195.18 31.2417C196.939 31.9795 198.875 32.1563 200.734 31.749C202.592 31.3417 204.288 30.3691 205.6 28.9583L203.66 27.0682C202.887 27.8974 201.925 28.5171 200.862 28.8721C199.798 29.227 198.665 29.3062 197.565 29.1023C196.464 28.8985 195.43 28.4182 194.554 27.7042C193.679 26.9902 192.989 26.0649 192.548 25.0109C192.106 23.9569 191.926 22.8071 192.024 21.6643C192.121 20.5214 192.493 19.4212 193.107 18.462C193.72 17.5027 194.556 16.7143 195.539 16.1673C196.522 15.6202 197.622 15.3315 198.741 15.327L198.763 15.3038Z" fill="#64748B"/>
<path d="M189.788 13.0099L187.829 11.1145C186.298 12.5764 185.084 14.3141 184.255 16.2279C183.427 18.1416 183 20.1936 183 22.266C183 24.3384 183.427 26.3905 184.255 28.3042C185.084 30.2179 186.298 31.9556 187.829 33.4175L189.788 31.5221C188.512 30.3118 187.499 28.8704 186.807 27.2815C186.116 25.6927 185.76 23.9879 185.76 22.266C185.76 20.5441 186.116 18.8393 186.807 17.2505C187.499 15.6616 188.512 14.2202 189.788 13.0099Z" fill="#64748B"/>
<path d="M208.212 9.40566C205.541 7.36198 202.314 6.26196 199 6.26613V9.01807C201.734 9.01546 204.398 9.9195 206.607 11.5995L208.212 9.40566Z" fill="#64748B"/>
<path d="M199 35.5513V38.2662C202.1 38.2697 205.133 37.3661 207.728 35.6661L206.203 33.4177C204.059 34.8136 201.557 35.5548 199 35.5513Z" fill="#64748B"/>
<path d="M199 32.1983C196.9 32.1969 194.852 31.569 193.132 30.3996C191.412 29.2302 190.104 27.5757 189.384 25.6602L186.879 26.79C187.822 29.1689 189.485 31.2144 191.649 32.6571C193.813 34.0999 196.375 34.8721 199 34.8723V32.1983Z" fill="#64748B"/>
<path d="M189.068 21.7814C189.231 19.2308 190.348 16.8383 192.192 15.0892C194.036 13.3402 196.47 12.3655 198.999 12.363V9.66016C195.76 9.66006 192.645 10.9183 190.299 13.1746C187.952 15.4309 186.554 18.5124 186.393 21.7814H189.068Z" fill="#64748B"/>
<path d="M270.636 28.0523C269.759 28.0562 268.893 27.8437 268.11 27.4322C267.327 27.0206 266.648 26.4219 266.131 25.685L262.523 27.8406C262.66 28.0052 262.823 28.1451 263.004 28.2544L269.424 32.1037C269.799 32.3031 270.214 32.407 270.636 32.407C271.057 32.407 271.472 32.3031 271.848 32.1037L278.267 28.2544C278.449 28.1451 278.611 28.0052 278.748 27.8406L275.15 25.6465C274.635 26.3918 273.958 26.9988 273.173 27.4172C272.388 27.8356 271.518 28.0533 270.636 28.0523Z" fill="#64748B"/>
<path d="M264.986 22.2431C264.99 20.8745 265.522 19.5551 266.48 18.537C267.439 17.5189 268.758 16.8735 270.184 16.7243V12.5759C269.968 12.6188 269.76 12.6933 269.567 12.7967L262.874 16.4759C262.511 16.708 262.208 17.0173 261.991 17.3796C261.773 17.7418 261.647 18.1471 261.621 18.5638V25.9223C261.624 26.1346 261.66 26.3454 261.727 26.5478L265.488 24.4782C265.159 23.7747 264.988 23.0133 264.986 22.2431Z" fill="#64748B"/>
<path d="M278.462 16.4733L272.122 12.7965C271.939 12.6932 271.742 12.6188 271.537 12.5759V16.7123C272.399 16.8105 273.225 17.1108 273.95 17.5891C274.675 18.0673 275.278 18.7101 275.711 19.4658C276.144 20.2214 276.394 21.0688 276.442 21.9397C276.49 22.8105 276.334 23.6805 275.986 24.4796L279.549 26.5478C279.613 26.3455 279.647 26.1349 279.65 25.9227V18.5691C279.627 18.1511 279.507 17.7442 279.301 17.3805C279.095 17.0168 278.808 16.7062 278.462 16.4733Z" fill="#64748B"/>
<path d="M283.08 12.7883L272.613 6.73498C271.999 6.42665 271.322 6.26611 270.635 6.26611C269.948 6.26611 269.271 6.42665 268.657 6.73498L258.19 12.7883C257.616 13.1631 257.137 13.6679 256.794 14.262C256.45 14.8561 256.251 15.5227 256.212 16.2081V28.3147C256.25 29.0015 256.449 29.6697 256.793 30.2654C257.136 30.8612 257.615 31.3676 258.19 31.7439L268.657 37.7974C269.271 38.1057 269.948 38.2661 270.635 38.2661C271.322 38.2661 271.999 38.1057 272.613 37.7974L283.08 31.7439C283.655 31.3676 284.134 30.8612 284.477 30.2654C284.821 29.6697 285.02 29.0015 285.058 28.3147V16.2081C285.019 15.5227 284.82 14.8561 284.476 14.262C284.133 13.6679 283.654 13.1631 283.08 12.7883ZM281.736 26.9221C281.705 27.4498 281.551 27.9628 281.287 28.4201C281.022 28.8775 280.654 29.2664 280.212 29.5557L272.149 34.2164C271.678 34.4545 271.158 34.5786 270.63 34.5786C270.103 34.5786 269.582 34.4545 269.111 34.2164L261.058 29.5557C260.616 29.2664 260.248 28.8775 259.983 28.4201C259.719 27.9628 259.565 27.4498 259.534 26.9221V17.6101C259.565 17.0825 259.719 16.5694 259.983 16.1121C260.248 15.6547 260.616 15.2658 261.058 14.9766L269.102 10.3158C269.573 10.0777 270.093 9.95364 270.621 9.95364C271.148 9.95364 271.669 10.0777 272.14 10.3158L280.203 14.9766C280.646 15.2648 281.016 15.6532 281.282 16.1107C281.549 16.568 281.704 17.0817 281.736 17.6101V26.9221Z" fill="#64748B"/>
<path d="M266.58 22.266C266.58 23.0237 266.818 23.7644 267.263 24.3944C267.709 25.0244 268.343 25.5154 269.084 25.8054C269.825 26.0954 270.641 26.1712 271.428 26.0234C272.214 25.8756 272.937 25.5108 273.504 24.975C274.072 24.4392 274.458 23.7566 274.615 23.0134C274.771 22.2703 274.691 21.5 274.384 20.8C274.077 20.1 273.557 19.5016 272.89 19.0807C272.223 18.6597 271.438 18.4351 270.636 18.4351C269.56 18.4351 268.529 18.8387 267.768 19.5571C267.007 20.2756 266.58 21.25 266.58 22.266Z" fill="#64748B"/>
<path d="M338.025 12.3333L333.057 17.3008L338.025 22.2683L342.992 17.3008L338.025 12.3333Z" fill="#64748B"/>
<path d="M343.001 17.2987L338.032 12.3293C339.348 13.6467 340.088 15.4332 340.088 17.2959C340.088 19.1587 339.348 20.9452 338.032 22.2626L333.062 27.2264L338.032 32.1958L343.001 27.2264L347.97 22.2626L343.001 17.2987Z" fill="#CBD5E1"/>
<path d="M360.085 32.2065L365.052 27.239L360.085 22.2715L355.117 27.239L360.085 32.2065Z" fill="#64748B"/>
<path d="M355.118 27.2375L360.087 32.2013C358.77 30.884 358.031 29.0975 358.031 27.2347C358.031 25.372 358.77 23.5855 360.087 22.2681L365.057 17.2987L360.087 12.3293L355.118 17.2987L350.154 22.2681L355.118 27.2375Z" fill="#CBD5E1"/>
<path d="M339.124 33.2986L344.092 38.2661L349.059 33.2986L344.092 28.3311L339.124 33.2986Z" fill="#64748B"/>
<path d="M344.092 28.3237L339.123 33.2931C340.44 31.9762 342.226 31.2364 344.089 31.2364C345.952 31.2364 347.738 31.9762 349.056 33.2931L354.02 38.2626L358.989 33.2931L354.02 28.3237L349.056 23.3599L344.092 28.3237Z" fill="#CBD5E1"/>
<path d="M358.998 11.2337L354.031 6.26611L349.063 11.2336L354.031 16.2012L358.998 11.2337Z" fill="#64748B"/>
<path d="M354.031 16.2066L358.995 11.2372C357.677 12.5541 355.891 13.2939 354.028 13.2939C352.165 13.2939 350.379 12.5541 349.061 11.2372L344.092 6.26782L339.123 11.2372L344.092 16.2066L349.061 21.176L354.031 16.2066Z" fill="#CBD5E1"/>
<path d="M426.978 9.3776L432.296 12.4482L434.992 10.8959L426.978 6.26611L413.593 14.0006L416.276 15.5529L426.978 9.3776Z" fill="#64748B"/>
<path d="M437.677 12.4482L426.98 18.6235L421.663 15.5529L418.974 17.1053L426.98 21.7282L440.373 14.0006L437.677 12.4482Z" fill="#64748B"/>
<path d="M415.746 22.838L413.057 21.2856V30.5316L426.442 38.266V35.1614L415.746 28.9792V22.838Z" fill="#64748B"/>
<path d="M413.057 18.1808L423.753 24.3562V30.4974L426.442 32.0566V22.8038L413.057 15.0762V18.1808Z" fill="#64748B"/>
<path d="M435.533 21.2856V18.1809L427.519 22.8039V38.266L430.208 36.7136V24.3562L435.533 21.2856Z" fill="#64748B"/>
<path d="M438.214 16.6285V28.9791L432.897 32.0566V35.1612L440.911 30.5315V15.0762L438.214 16.6285Z" fill="#64748B"/>
<path d="M499.3 19.2584L494.109 16.2402L488.911 19.2584V25.2809L494.109 28.2922L499.3 25.2809V19.2584ZM498.182 24.6332L494.109 26.9898L490.035 24.6332V19.9061L494.109 17.5426L498.182 19.9061V24.6332Z" fill="#64748B"/>
<path d="M510.521 19.2515L505.53 16.2402L500.547 19.2515V25.274L505.53 28.2922L510.521 25.274V19.2515Z" fill="#64748B"/>
<path d="M516.96 16.2402L511.769 19.2584V25.2809L516.96 28.2922L522.158 25.2809V19.2584L516.96 16.2402ZM521.034 24.6332L516.96 26.9898L512.886 24.6332V19.9061L516.96 17.5426L521.034 19.9061V24.6332Z" fill="#64748B"/>
<path d="M494.73 29.2323V35.2548L499.935 38.2661L505.119 35.2548V29.2323L499.935 26.2141L494.73 29.2323ZM503.982 34.6277L499.935 36.9637L495.825 34.6277V29.88L499.935 27.5165L503.996 29.88L503.982 34.6277Z" fill="#64748B"/>
<path d="M505.95 29.2323V35.2548L511.141 38.2661L516.339 35.2548V29.2323L511.141 26.2141L505.95 29.2323ZM515.214 34.6277L511.141 36.9844L507.074 34.6277V29.88L511.141 27.5165L515.214 29.88V34.6277Z" fill="#64748B"/>
<path d="M505.119 15.3068V9.2636L499.942 6.26611L494.73 9.2636V15.2861L499.942 18.3181L505.119 15.3068ZM495.827 9.95268L499.942 7.56847L503.995 9.95268V14.6798L499.942 17.0157L495.827 14.6591V9.95268Z" fill="#64748B"/>
<path d="M516.339 15.3275V9.28426L511.141 6.26611L505.95 9.28426V15.3068L511.141 18.3181L516.339 15.3275ZM507.074 9.97334L511.141 7.60982L515.214 9.97334V14.7004L511.141 17.0571L507.074 14.7004V9.97334Z" fill="#64748B"/>
</svg>
